<?xml version="1.0" encoding="utf-8"?>
<!-- Generator: Adobe Illustrator 16.0.0, SVG Export Plug-In . SVG Version: 6.00 Build 0)  -->
<!DOCTYPE svg PUBLIC "-//W3C//DTD SVG 1.1//EN" "http://www.w3.org/Graphics/SVG/1.1/DTD/svg11.dtd">
<svg version="1.1" id="Layer_1" xmlns="http://www.w3.org/2000/svg" xmlns:xlink="http://www.w3.org/1999/xlink" x="0px" y="0px"
	 width="246.667px" height="116.971px" viewBox="0 0 246.667 116.971" enable-background="new 0 0 246.667 116.971"
	 xml:space="preserve">
<g>
	<g>
		<defs>
			<rect id="SVGID_1_" x="154.819" y="33.956" width="48.001" height="48.721"/>
		</defs>
		<clipPath id="SVGID_2_">
			<use xlink:href="#SVGID_1_"  overflow="visible"/>
		</clipPath>
		
			<linearGradient id="SVGID_3_" gradientUnits="userSpaceOnUse" x1="123.4565" y1="-46.325" x2="124.4565" y2="-46.325" gradientTransform="matrix(0 47.4696 47.4696 0 2377.834 -5826.7168)">
			<stop  offset="0" style="stop-color:#D8FF7D"/>
			<stop  offset="0.3818" style="stop-color:#84AF2E"/>
			<stop  offset="1" style="stop-color:#84AF2E"/>
		</linearGradient>
		<rect x="154.819" y="33.956" clip-path="url(#SVGID_2_)" fill="url(#SVGID_3_)" width="48.001" height="48.721"/>
	</g>
</g>
<g>
	<g>
		<defs>
			<rect id="SVGID_4_" x="100.553" y="33.956" width="48" height="48.721"/>
		</defs>
		<clipPath id="SVGID_5_">
			<use xlink:href="#SVGID_4_"  overflow="visible"/>
		</clipPath>
		
			<linearGradient id="SVGID_6_" gradientUnits="userSpaceOnUse" x1="123.4565" y1="-46.3245" x2="124.4565" y2="-46.3245" gradientTransform="matrix(0 47.4696 47.4696 0 2323.5527 -5826.7168)">
			<stop  offset="0" style="stop-color:#D8FF7D"/>
			<stop  offset="0.3818" style="stop-color:#84AF2E"/>
			<stop  offset="1" style="stop-color:#84AF2E"/>
		</linearGradient>
		<rect x="100.553" y="33.956" clip-path="url(#SVGID_5_)" fill="url(#SVGID_6_)" width="48" height="48.721"/>
	</g>
</g>
<g>
	<g>
		<defs>
			<rect id="SVGID_7_" x="46.287" y="33.956" width="48.001" height="48.721"/>
		</defs>
		<clipPath id="SVGID_8_">
			<use xlink:href="#SVGID_7_"  overflow="visible"/>
		</clipPath>
		
			<linearGradient id="SVGID_9_" gradientUnits="userSpaceOnUse" x1="123.4565" y1="-46.3254" x2="124.4565" y2="-46.3254" gradientTransform="matrix(0 47.4696 47.4696 0 2269.3027 -5826.7168)">
			<stop  offset="0" style="stop-color:#D8FF7D"/>
			<stop  offset="0.3818" style="stop-color:#84AF2E"/>
			<stop  offset="1" style="stop-color:#84AF2E"/>
		</linearGradient>
		<rect x="46.287" y="33.956" clip-path="url(#SVGID_8_)" fill="url(#SVGID_9_)" width="48.001" height="48.721"/>
	</g>
</g>
<g>
	<g>
		<defs>
			<rect id="SVGID_10_" y="0" width="246.667" height="116.971"/>
		</defs>
		<clipPath id="SVGID_11_">
			<use xlink:href="#SVGID_10_"  overflow="visible"/>
		</clipPath>
		<polygon clip-path="url(#SVGID_11_)" fill="#FFFFFF" points="107.755,73.251 115.366,73.251 115.366,50.314 121.22,73.251 
			128.11,73.251 133.974,50.314 133.974,73.251 141.585,73.251 141.585,43.176 129.371,43.176 124.69,61.477 119.978,43.176 
			107.755,43.176 		"/>
	</g>
	<g>
		<defs>
			<rect id="SVGID_12_" y="0" width="246.667" height="116.971"/>
		</defs>
		<clipPath id="SVGID_13_">
			<use xlink:href="#SVGID_12_"  overflow="visible"/>
		</clipPath>
		<path clip-path="url(#SVGID_13_)" fill="#FFFFFF" d="M168.716,70.81c1.973,1.97,5.514,2.953,10.628,2.953
			c2.913,0,5.327-0.421,7.241-1.263c1.914-0.839,3.406-2.074,4.475-3.703c1.064-1.627,1.6-3.403,1.6-5.334
			c0-1.64-0.4-3.123-1.199-4.45c-0.801-1.326-2.08-2.438-3.838-3.334c-1.756-0.895-4.666-1.781-8.729-2.656
			c-1.643-0.342-2.682-0.711-3.117-1.107c-0.454-0.383-0.678-0.814-0.678-1.294c0-0.656,0.271-1.212,0.818-1.671
			s1.362-0.688,2.442-0.688c1.312,0,2.341,0.309,3.087,0.924c0.745,0.614,1.235,1.6,1.467,2.953l8.76-0.513
			c-0.383-3.119-1.584-5.392-3.6-6.821c-2.017-1.429-4.949-2.143-8.791-2.143c-3.132,0-5.597,0.393-7.396,1.179
			c-1.8,0.785-3.146,1.867-4.041,3.241c-0.896,1.375-1.345,2.833-1.345,4.38c0,2.353,0.875,4.287,2.625,5.806
			c1.738,1.52,4.646,2.735,8.72,3.651c2.489,0.547,4.075,1.129,4.761,1.745c0.684,0.615,1.025,1.313,1.025,2.091
			c0,0.821-0.357,1.543-1.076,2.164c-0.721,0.623-1.74,0.935-3.067,0.935c-1.778,0-3.146-0.607-4.104-1.825
			c-0.588-0.75-0.979-1.847-1.17-3.282l-8.842,0.553C165.632,66.337,166.748,68.839,168.716,70.81"/>
	</g>
	<g>
		<defs>
			<rect id="SVGID_14_" y="0" width="246.667" height="116.971"/>
		</defs>
		<clipPath id="SVGID_15_">
			<use xlink:href="#SVGID_14_"  overflow="visible"/>
		</clipPath>
		<path clip-path="url(#SVGID_15_)" fill="#FFFFFF" d="M56.85,67.015c1.382,2.338,3.183,4.047,5.405,5.127
			c2.223,1.082,5.03,1.621,8.422,1.621c3.337,0,6.124-0.625,8.36-1.878c2.236-1.25,3.945-3.002,5.129-5.252
			c1.183-2.25,1.775-5.13,1.775-8.646c0-4.842-1.355-8.606-4.063-11.293c-2.708-2.688-6.565-4.031-11.57-4.031
			c-4.883,0-8.692,1.367-11.427,4.104c-2.735,2.733-4.103,6.557-4.103,11.467C54.777,61.75,55.467,64.675,56.85,67.015
			 M65.773,51.689c1.135-1.326,2.639-1.99,4.513-1.99c1.956,0,3.505,0.654,4.647,1.961c1.142,1.304,1.713,3.373,1.713,6.205
			c0,3.363-0.547,5.697-1.642,6.996c-1.094,1.3-2.639,1.947-4.636,1.947c-1.942,0-3.477-0.662-4.606-1.987
			c-1.128-1.328-1.692-3.509-1.692-6.545C64.07,55.213,64.637,53.017,65.773,51.689"/>
	</g>
</g>
</svg>
