<?xml version="1.0" encoding="utf-8"?>
<!-- Generator: Adobe Illustrator 16.0.0, SVG Export Plug-In . SVG Version: 6.00 Build 0)  -->
<!DOCTYPE svg PUBLIC "-//W3C//DTD SVG 1.1//EN" "http://www.w3.org/Graphics/SVG/1.1/DTD/svg11.dtd">
<svg version="1.1" id="Layer_1" xmlns="http://www.w3.org/2000/svg" xmlns:xlink="http://www.w3.org/1999/xlink" x="0px" y="0px"
	 width="246.667px" height="116.97px" viewBox="0 0 246.667 116.97" enable-background="new 0 0 246.667 116.97"
	 xml:space="preserve">
<g>
	<defs>
		<rect id="SVGID_1_" width="246.667" height="116.97"/>
	</defs>
	<clipPath id="SVGID_2_">
		<use xlink:href="#SVGID_1_"  overflow="visible"/>
	</clipPath>
	<path clip-path="url(#SVGID_2_)" fill="#231F20" d="M48.032,91.581c0-0.729,0.109-1.342,0.327-1.836
		c0.163-0.363,0.384-0.691,0.666-0.98c0.281-0.29,0.589-0.504,0.924-0.645c0.446-0.188,0.96-0.281,1.542-0.281
		c1.054,0,1.897,0.326,2.53,0.979c0.632,0.653,0.949,1.563,0.949,2.729c0,1.153-0.314,2.057-0.942,2.71
		c-0.628,0.651-1.467,0.978-2.517,0.978c-1.064,0-1.91-0.325-2.537-0.974C48.346,93.611,48.032,92.717,48.032,91.581 M49.521,91.531
		c0,0.811,0.187,1.425,0.561,1.843S50.93,94,51.506,94s1.048-0.208,1.417-0.622c0.369-0.415,0.554-1.037,0.554-1.867
		c0-0.82-0.18-1.431-0.539-1.835c-0.36-0.403-0.837-0.604-1.432-0.604c-0.595,0-1.075,0.204-1.44,0.612
		C49.703,90.092,49.521,90.708,49.521,91.531"/>
	<path clip-path="url(#SVGID_2_)" fill="#231F20" d="M56.098,95.112v-7.153h2.317c0.879,0,1.451,0.036,1.717,0.107
		c0.411,0.107,0.753,0.341,1.03,0.701c0.276,0.358,0.415,0.823,0.415,1.393c0,0.439-0.08,0.809-0.24,1.108
		c-0.159,0.298-0.361,0.534-0.607,0.705s-0.495,0.282-0.749,0.339c-0.345,0.067-0.844,0.102-1.498,0.102h-0.941v2.698H56.098z
		 M57.542,89.169v2.029h0.79c0.569,0,0.95-0.037,1.142-0.112c0.192-0.074,0.342-0.191,0.451-0.352
		c0.109-0.159,0.163-0.344,0.163-0.555c0-0.262-0.076-0.477-0.229-0.646c-0.152-0.169-0.346-0.273-0.58-0.316
		c-0.173-0.032-0.519-0.049-1.04-0.049H57.542z"/>
	<polygon clip-path="url(#SVGID_2_)" fill="#231F20" points="64.372,95.112 64.372,89.17 62.25,89.17 62.25,87.959 67.934,87.959 
		67.934,89.17 65.816,89.17 65.816,95.112 	"/>
	<rect x="68.822" y="87.959" clip-path="url(#SVGID_2_)" fill="#231F20" width="1.444" height="7.152"/>
	<polygon clip-path="url(#SVGID_2_)" fill="#231F20" points="71.622,95.112 71.622,87.959 73.783,87.959 75.081,92.839 
		76.364,87.959 78.531,87.959 78.531,95.112 77.189,95.112 77.189,89.481 75.769,95.112 74.378,95.112 72.964,89.481 72.964,95.112 
			"/>
	<path clip-path="url(#SVGID_2_)" fill="#231F20" d="M79.956,87.958h1.444v3.874c0,0.615,0.018,1.015,0.053,1.195
		c0.063,0.293,0.209,0.529,0.442,0.705C82.127,93.911,82.445,94,82.849,94c0.41,0,0.719-0.084,0.927-0.252
		c0.208-0.167,0.333-0.373,0.376-0.616c0.042-0.243,0.063-0.649,0.063-1.216v-3.957h1.445v3.758c0,0.858-0.039,1.466-0.118,1.819
		c-0.078,0.355-0.222,0.653-0.431,0.898c-0.21,0.244-0.491,0.438-0.842,0.583c-0.352,0.144-0.81,0.217-1.376,0.217
		c-0.683,0-1.201-0.079-1.554-0.237c-0.353-0.156-0.631-0.361-0.837-0.613c-0.205-0.252-0.34-0.518-0.404-0.793
		c-0.095-0.41-0.142-1.016-0.142-1.816V87.958z"/>
	<polygon clip-path="url(#SVGID_2_)" fill="#231F20" points="87.162,95.112 87.162,87.959 89.322,87.959 90.621,92.839 
		91.903,87.959 94.07,87.959 94.07,95.112 92.729,95.112 92.729,89.481 91.309,95.112 89.917,95.112 88.503,89.481 88.503,95.112 	
		"/>
	<polygon clip-path="url(#SVGID_2_)" fill="#231F20" points="98.262,95.112 98.262,87.959 100.422,87.959 101.721,92.839 
		103.003,87.959 105.17,87.959 105.17,95.112 103.829,95.112 103.829,89.481 102.409,95.112 101.018,95.112 99.604,89.481 
		99.604,95.112 	"/>
	<path clip-path="url(#SVGID_2_)" fill="#231F20" d="M113.054,95.112h-1.571l-0.625-1.625H108l-0.591,1.625h-1.532l2.786-7.152
		h1.527L113.054,95.112z M110.396,92.282l-0.986-2.653l-0.966,2.653H110.396z"/>
	<polygon clip-path="url(#SVGID_2_)" fill="#231F20" points="113.835,95.112 113.835,87.959 115.24,87.959 118.168,92.736 
		118.168,87.959 119.509,87.959 119.509,95.112 118.061,95.112 115.177,90.447 115.177,95.112 	"/>
	<path clip-path="url(#SVGID_2_)" fill="#231F20" d="M127.486,95.112h-1.57l-0.625-1.625h-2.859l-0.59,1.625h-1.532l2.786-7.152
		h1.527L127.486,95.112z M124.827,92.282l-0.985-2.653l-0.966,2.653H124.827z"/>
	<path clip-path="url(#SVGID_2_)" fill="#231F20" d="M131.579,92.482v-1.205h3.113v2.851c-0.302,0.291-0.741,0.549-1.314,0.771
		c-0.574,0.225-1.155,0.335-1.744,0.335c-0.748,0-1.4-0.156-1.956-0.471c-0.558-0.313-0.976-0.763-1.254-1.346
		c-0.28-0.584-0.42-1.22-0.42-1.906c0-0.745,0.155-1.407,0.468-1.986c0.313-0.578,0.77-1.022,1.371-1.332
		c0.459-0.236,1.029-0.355,1.713-0.355c0.888,0,1.582,0.186,2.081,0.559c0.499,0.372,0.819,0.888,0.964,1.544l-1.436,0.27
		c-0.101-0.353-0.291-0.629-0.567-0.832c-0.279-0.204-0.626-0.305-1.042-0.305c-0.631,0-1.133,0.198-1.505,0.599
		c-0.373,0.401-0.56,0.995-0.56,1.782c0,0.848,0.189,1.484,0.566,1.91C130.435,93.788,130.93,94,131.54,94
		c0.304,0,0.606-0.061,0.91-0.179c0.305-0.118,0.565-0.264,0.783-0.433v-0.907H131.579z"/>
	<polygon clip-path="url(#SVGID_2_)" fill="#231F20" points="136.024,95.112 136.024,87.959 141.329,87.959 141.329,89.17 
		137.469,89.17 137.469,90.755 141.06,90.755 141.06,91.96 137.469,91.96 137.469,93.907 141.466,93.907 141.466,95.112 	"/>
	<path clip-path="url(#SVGID_2_)" fill="#231F20" d="M142.685,87.958h2.639c0.596,0,1.049,0.046,1.362,0.138
		c0.42,0.124,0.778,0.344,1.078,0.658c0.3,0.315,0.526,0.702,0.683,1.158c0.157,0.457,0.235,1.021,0.235,1.692
		c0,0.587-0.073,1.095-0.221,1.521c-0.179,0.521-0.435,0.942-0.767,1.265c-0.25,0.244-0.587,0.434-1.014,0.57
		c-0.319,0.102-0.745,0.151-1.279,0.151h-2.717V87.958z M144.128,89.169v4.737h1.078c0.404,0,0.695-0.022,0.874-0.068
		c0.235-0.059,0.428-0.157,0.583-0.298c0.154-0.14,0.281-0.37,0.378-0.689c0.099-0.321,0.147-0.757,0.147-1.311
		s-0.049-0.978-0.147-1.272c-0.097-0.296-0.233-0.528-0.41-0.694c-0.176-0.166-0.397-0.278-0.668-0.337
		c-0.201-0.045-0.597-0.067-1.185-0.067H144.128z"/>
	<path clip-path="url(#SVGID_2_)" fill="#231F20" d="M152.315,92.785l1.405-0.137c0.084,0.472,0.256,0.818,0.515,1.039
		s0.607,0.332,1.047,0.332c0.466,0,0.814-0.098,1.052-0.295c0.234-0.197,0.353-0.427,0.353-0.691c0-0.169-0.05-0.312-0.147-0.432
		c-0.101-0.118-0.273-0.221-0.521-0.309c-0.169-0.06-0.555-0.162-1.155-0.313c-0.774-0.191-1.317-0.427-1.631-0.707
		c-0.438-0.393-0.657-0.873-0.657-1.438c0-0.364,0.102-0.705,0.309-1.023c0.207-0.316,0.504-0.558,0.893-0.724
		c0.39-0.165,0.857-0.248,1.407-0.248c0.899,0,1.574,0.195,2.028,0.59c0.454,0.393,0.691,0.919,0.714,1.576l-1.444,0.063
		c-0.061-0.368-0.193-0.632-0.396-0.793s-0.508-0.241-0.915-0.241c-0.419,0-0.749,0.086-0.986,0.258
		c-0.151,0.111-0.229,0.26-0.229,0.444c0,0.169,0.071,0.315,0.215,0.436c0.182,0.151,0.625,0.311,1.327,0.477
		c0.703,0.166,1.222,0.338,1.558,0.515c0.337,0.179,0.602,0.42,0.791,0.729c0.191,0.307,0.286,0.687,0.286,1.138
		c0,0.41-0.115,0.794-0.342,1.152c-0.229,0.357-0.55,0.624-0.966,0.797c-0.416,0.174-0.937,0.262-1.558,0.262
		c-0.903,0-1.598-0.209-2.083-0.627C152.7,94.194,152.41,93.585,152.315,92.785"/>
	<polygon clip-path="url(#SVGID_2_)" fill="#231F20" points="159.346,95.112 159.346,87.959 164.65,87.959 164.65,89.17 
		160.79,89.17 160.79,90.755 164.381,90.755 164.381,91.96 160.79,91.96 160.79,93.907 164.786,93.907 164.786,95.112 	"/>
	<path clip-path="url(#SVGID_2_)" fill="#231F20" d="M166.016,95.112v-7.152h3.04c0.764,0,1.318,0.063,1.666,0.192
		c0.346,0.128,0.624,0.357,0.832,0.687c0.208,0.328,0.312,0.704,0.312,1.126c0,0.537-0.158,0.979-0.473,1.33
		c-0.316,0.349-0.787,0.569-1.415,0.661c0.312,0.182,0.57,0.383,0.772,0.6c0.203,0.218,0.479,0.605,0.822,1.161l0.873,1.396h-1.726
		l-1.045-1.557c-0.37-0.556-0.624-0.906-0.762-1.051c-0.137-0.146-0.28-0.244-0.434-0.297c-0.153-0.055-0.396-0.081-0.728-0.081
		h-0.293v2.985H166.016z M167.459,90.984h1.068c0.694,0,1.126-0.028,1.298-0.088c0.173-0.058,0.309-0.159,0.405-0.303
		c0.098-0.142,0.146-0.321,0.146-0.536c0-0.241-0.063-0.435-0.191-0.583c-0.129-0.147-0.312-0.242-0.545-0.28
		c-0.117-0.017-0.468-0.023-1.055-0.023h-1.127V90.984z"/>
	<polygon clip-path="url(#SVGID_2_)" fill="#231F20" points="174.871,95.112 172.314,87.959 173.882,87.959 175.69,93.253 
		177.442,87.959 178.976,87.959 176.413,95.112 	"/>
	<rect x="179.666" y="87.959" clip-path="url(#SVGID_2_)" fill="#231F20" width="1.444" height="7.152"/>
	<path clip-path="url(#SVGID_2_)" fill="#231F20" d="M187.063,92.482l1.4,0.444c-0.214,0.781-0.572,1.361-1.071,1.74
		s-1.133,0.567-1.899,0.567c-0.95,0-1.731-0.324-2.342-0.974c-0.611-0.649-0.917-1.536-0.917-2.661c0-1.189,0.307-2.115,0.922-2.773
		c0.613-0.658,1.423-0.988,2.425-0.988c0.875,0,1.585,0.258,2.131,0.776c0.326,0.305,0.57,0.744,0.733,1.316l-1.431,0.342
		c-0.085-0.371-0.262-0.664-0.528-0.879c-0.27-0.214-0.596-0.32-0.979-0.32c-0.53,0-0.96,0.188-1.29,0.569
		c-0.331,0.381-0.496,0.997-0.496,1.851c0,0.903,0.163,1.548,0.488,1.931c0.326,0.384,0.748,0.577,1.269,0.577
		c0.385,0,0.714-0.123,0.99-0.367C186.745,93.389,186.943,93.005,187.063,92.482"/>
	<polygon clip-path="url(#SVGID_2_)" fill="#231F20" points="189.702,95.112 189.702,87.959 195.007,87.959 195.007,89.17 
		191.146,89.17 191.146,90.755 194.737,90.755 194.737,91.96 191.146,91.96 191.146,93.907 195.143,93.907 195.143,95.112 	"/>
	<path clip-path="url(#SVGID_2_)" fill="#231F20" d="M196.002,92.785l1.405-0.137c0.084,0.472,0.256,0.818,0.516,1.039
		c0.258,0.221,0.606,0.332,1.046,0.332c0.466,0,0.814-0.098,1.052-0.295c0.235-0.197,0.353-0.427,0.353-0.691
		c0-0.169-0.05-0.312-0.147-0.432c-0.101-0.118-0.273-0.221-0.521-0.309c-0.169-0.06-0.555-0.162-1.155-0.313
		c-0.775-0.191-1.317-0.427-1.631-0.707c-0.438-0.393-0.657-0.873-0.657-1.438c0-0.364,0.102-0.705,0.309-1.023
		c0.206-0.316,0.504-0.558,0.894-0.724c0.389-0.165,0.856-0.248,1.406-0.248c0.899,0,1.574,0.195,2.028,0.59
		c0.454,0.393,0.692,0.919,0.714,1.576l-1.444,0.063c-0.061-0.368-0.193-0.632-0.396-0.793c-0.204-0.161-0.508-0.241-0.915-0.241
		c-0.419,0-0.749,0.086-0.986,0.258c-0.151,0.111-0.229,0.26-0.229,0.444c0,0.169,0.072,0.315,0.215,0.436
		c0.182,0.151,0.625,0.311,1.327,0.477c0.703,0.166,1.222,0.338,1.558,0.515c0.337,0.179,0.602,0.42,0.791,0.729
		c0.191,0.307,0.285,0.687,0.285,1.138c0,0.41-0.114,0.794-0.341,1.152c-0.229,0.357-0.55,0.624-0.966,0.797
		c-0.416,0.174-0.937,0.262-1.558,0.262c-0.903,0-1.598-0.209-2.083-0.627C196.387,94.194,196.097,93.585,196.002,92.785"/>
</g>
<g>
	<defs>
		<rect id="SVGID_3_" x="154.819" y="33.956" width="48.001" height="48.721"/>
	</defs>
	<clipPath id="SVGID_4_">
		<use xlink:href="#SVGID_3_"  overflow="visible"/>
	</clipPath>
	
		<linearGradient id="SVGID_5_" gradientUnits="userSpaceOnUse" x1="0" y1="116.9702" x2="1" y2="116.9702" gradientTransform="matrix(0 47.4696 -47.4696 0 5731.353 33.714)">
		<stop  offset="0" style="stop-color:#D8FF7D"/>
		<stop  offset="0.3818" style="stop-color:#84AF2E"/>
		<stop  offset="1" style="stop-color:#84AF2E"/>
	</linearGradient>
	<rect x="154.819" y="33.956" clip-path="url(#SVGID_4_)" fill="url(#SVGID_5_)" width="48.001" height="48.721"/>
</g>
<g>
	<defs>
		<rect id="SVGID_6_" x="100.553" y="33.956" width="48" height="48.721"/>
	</defs>
	<clipPath id="SVGID_7_">
		<use xlink:href="#SVGID_6_"  overflow="visible"/>
	</clipPath>
	
		<linearGradient id="SVGID_8_" gradientUnits="userSpaceOnUse" x1="0" y1="116.9702" x2="1" y2="116.9702" gradientTransform="matrix(0 47.4696 -47.4696 0 5677.0718 33.714)">
		<stop  offset="0" style="stop-color:#D8FF7D"/>
		<stop  offset="0.3818" style="stop-color:#84AF2E"/>
		<stop  offset="1" style="stop-color:#84AF2E"/>
	</linearGradient>
	<rect x="100.553" y="33.956" clip-path="url(#SVGID_7_)" fill="url(#SVGID_8_)" width="48" height="48.721"/>
</g>
<g>
	<defs>
		<rect id="SVGID_9_" x="46.287" y="33.956" width="48.001" height="48.721"/>
	</defs>
	<clipPath id="SVGID_10_">
		<use xlink:href="#SVGID_9_"  overflow="visible"/>
	</clipPath>
	
		<linearGradient id="SVGID_11_" gradientUnits="userSpaceOnUse" x1="0" y1="116.9702" x2="1" y2="116.9702" gradientTransform="matrix(0 47.4696 -47.4696 0 5622.8218 33.714)">
		<stop  offset="0" style="stop-color:#D8FF7D"/>
		<stop  offset="0.3818" style="stop-color:#84AF2E"/>
		<stop  offset="1" style="stop-color:#84AF2E"/>
	</linearGradient>
	<rect x="46.287" y="33.956" clip-path="url(#SVGID_10_)" fill="url(#SVGID_11_)" width="48.001" height="48.721"/>
</g>
<g>
	<defs>
		<rect id="SVGID_12_" width="246.667" height="116.97"/>
	</defs>
	<clipPath id="SVGID_13_">
		<use xlink:href="#SVGID_12_"  overflow="visible"/>
	</clipPath>
	<polygon clip-path="url(#SVGID_13_)" fill="#FFFFFF" points="107.755,73.251 115.366,73.251 115.366,50.314 121.22,73.251 
		128.11,73.251 133.974,50.314 133.974,73.251 141.585,73.251 141.585,43.176 129.37,43.176 124.69,61.477 119.978,43.176 
		107.755,43.176 	"/>
	<path clip-path="url(#SVGID_13_)" fill="#FFFFFF" d="M168.717,70.81c1.972,1.97,5.513,2.953,10.627,2.953
		c2.914,0,5.328-0.42,7.242-1.262c1.914-0.839,3.406-2.074,4.474-3.703c1.065-1.627,1.599-3.404,1.599-5.334
		c0-1.64-0.4-3.123-1.199-4.451c-0.801-1.326-2.08-2.437-3.838-3.334c-1.756-0.894-4.666-1.781-8.728-2.656
		c-1.642-0.342-2.681-0.711-3.117-1.107c-0.454-0.383-0.678-0.815-0.678-1.294c0-0.656,0.272-1.212,0.819-1.671
		c0.547-0.459,1.362-0.688,2.442-0.688c1.312,0,2.341,0.309,3.087,0.924c0.745,0.615,1.235,1.6,1.467,2.953l8.76-0.512
		c-0.383-3.119-1.584-5.392-3.6-6.822c-2.017-1.428-4.949-2.142-8.791-2.142c-3.132,0-5.597,0.392-7.396,1.179
		c-1.799,0.785-3.146,1.867-4.041,3.241c-0.896,1.375-1.344,2.833-1.344,4.38c0,2.352,0.875,4.287,2.625,5.805
		c1.738,1.52,4.646,2.736,8.719,3.652c2.49,0.547,4.076,1.129,4.761,1.745c0.683,0.615,1.026,1.312,1.026,2.091
		c0,0.821-0.358,1.543-1.077,2.164c-0.72,0.623-1.74,0.934-3.067,0.934c-1.779,0-3.146-0.607-4.104-1.825
		c-0.588-0.75-0.979-1.847-1.17-3.282l-8.842,0.553C165.633,66.337,166.748,68.839,168.717,70.81"/>
	<path clip-path="url(#SVGID_13_)" fill="#FFFFFF" d="M56.85,67.015c1.382,2.338,3.183,4.047,5.405,5.127
		c2.223,1.082,5.03,1.621,8.422,1.621c3.337,0,6.124-0.625,8.36-1.877c2.236-1.25,3.945-3.002,5.129-5.252
		c1.183-2.25,1.775-5.13,1.775-8.646c0-4.842-1.355-8.606-4.063-11.293c-2.708-2.688-6.565-4.031-11.57-4.031
		c-4.883,0-8.692,1.367-11.427,4.103c-2.735,2.734-4.103,6.557-4.103,11.467C54.777,61.75,55.467,64.675,56.85,67.015
		 M65.773,51.689c1.135-1.326,2.639-1.99,4.513-1.99c1.956,0,3.505,0.654,4.647,1.961c1.142,1.304,1.713,3.373,1.713,6.205
		c0,3.363-0.547,5.697-1.642,6.996c-1.094,1.3-2.639,1.947-4.636,1.947c-1.942,0-3.477-0.662-4.606-1.987
		c-1.128-1.328-1.692-3.509-1.692-6.545C64.07,55.213,64.637,53.017,65.773,51.689"/>
</g>
</svg>
